<mxfile host="Electron" modified="2024-05-24T15:42:06.002Z" agent="Mozilla/5.0 (Windows NT 10.0; Win64; x64) AppleWebKit/537.36 (KHTML, like Gecko) draw.io/24.2.5 Chrome/120.0.6099.109 Electron/28.1.0 Safari/537.36" etag="ePCq24uQc0FYy9KbkNB_" version="24.2.5" type="device">
  <diagram name="第 1 页" id="SsFmNWBRylDBSWi3VCQP">
    <mxGraphModel dx="2074" dy="1205" grid="1" gridSize="10" guides="1" tooltips="1" connect="1" arrows="1" fold="1" page="1" pageScale="1" pageWidth="827" pageHeight="1169" math="0" shadow="0">
      <root>
        <mxCell id="0" />
        <mxCell id="1" parent="0" />
        <mxCell id="v9XfCU0aPKug2swARkXn-10" value="" style="rounded=0;whiteSpace=wrap;html=1;fillColor=#ffe6cc;strokeColor=#d79b00;" vertex="1" parent="1">
          <mxGeometry x="330" y="340" width="630" height="360" as="geometry" />
        </mxCell>
        <mxCell id="v9XfCU0aPKug2swARkXn-1" value="" style="shape=cube;whiteSpace=wrap;html=1;boundedLbl=1;backgroundOutline=1;darkOpacity=0.05;darkOpacity2=0.1;size=80;fillColor=#f8cecc;strokeColor=#b85450;" vertex="1" parent="1">
          <mxGeometry x="550" y="410" width="360" height="250" as="geometry" />
        </mxCell>
        <mxCell id="v9XfCU0aPKug2swARkXn-2" value="" style="shape=cube;whiteSpace=wrap;html=1;boundedLbl=1;backgroundOutline=1;darkOpacity=0.05;darkOpacity2=0.1;size=10;fillColor=#d5e8d4;strokeColor=#82b366;" vertex="1" parent="1">
          <mxGeometry x="530" y="515" width="50" height="40" as="geometry" />
        </mxCell>
        <mxCell id="v9XfCU0aPKug2swARkXn-3" value="" style="shape=cube;whiteSpace=wrap;html=1;boundedLbl=1;backgroundOutline=1;darkOpacity=0.05;darkOpacity2=0.1;size=10;fillColor=#e1d5e7;strokeColor=#9673a6;" vertex="1" parent="1">
          <mxGeometry x="540" y="525" width="50" height="40" as="geometry" />
        </mxCell>
        <mxCell id="v9XfCU0aPKug2swARkXn-5" value="" style="shape=cube;whiteSpace=wrap;html=1;boundedLbl=1;backgroundOutline=1;darkOpacity=0.05;darkOpacity2=0.1;size=10;" vertex="1" parent="1">
          <mxGeometry x="550" y="535" width="50" height="40" as="geometry" />
        </mxCell>
        <mxCell id="v9XfCU0aPKug2swARkXn-6" value="" style="shape=cube;whiteSpace=wrap;html=1;boundedLbl=1;backgroundOutline=1;darkOpacity=0.05;darkOpacity2=0.1;size=10;fillColor=#d5e8d4;strokeColor=#82b366;" vertex="1" parent="1">
          <mxGeometry x="550" y="535" width="50" height="40" as="geometry" />
        </mxCell>
        <mxCell id="v9XfCU0aPKug2swARkXn-8" value="" style="shape=cube;whiteSpace=wrap;html=1;boundedLbl=1;backgroundOutline=1;darkOpacity=0.05;darkOpacity2=0.1;size=10;fillColor=#d5e8d4;strokeColor=#82b366;" vertex="1" parent="1">
          <mxGeometry x="500" y="525" width="50" height="40" as="geometry" />
        </mxCell>
        <mxCell id="v9XfCU0aPKug2swARkXn-11" value="&lt;b style=&quot;font-size: 20px;&quot;&gt;&lt;font style=&quot;font-size: 20px;&quot;&gt;Mesh&lt;/font&gt;&lt;/b&gt;" style="text;html=1;align=center;verticalAlign=middle;whiteSpace=wrap;rounded=0;fontSize=20;" vertex="1" parent="1">
          <mxGeometry x="720" y="550" width="120" height="50" as="geometry" />
        </mxCell>
        <mxCell id="v9XfCU0aPKug2swARkXn-12" value="" style="endArrow=classic;html=1;rounded=0;exitX=0;exitY=0;exitDx=20;exitDy=0;exitPerimeter=0;entryX=0.5;entryY=1;entryDx=0;entryDy=0;" edge="1" parent="1" source="v9XfCU0aPKug2swARkXn-3" target="v9XfCU0aPKug2swARkXn-14">
          <mxGeometry width="50" height="50" relative="1" as="geometry">
            <mxPoint x="390" y="640" as="sourcePoint" />
            <mxPoint x="120" y="510" as="targetPoint" />
          </mxGeometry>
        </mxCell>
        <mxCell id="v9XfCU0aPKug2swARkXn-14" value="Surface Hit Voxel" style="text;html=1;align=center;verticalAlign=middle;whiteSpace=wrap;rounded=0;fontSize=15;fontStyle=1" vertex="1" parent="1">
          <mxGeometry x="370" y="400" width="136" height="30" as="geometry" />
        </mxCell>
        <mxCell id="v9XfCU0aPKug2swARkXn-15" value="" style="endArrow=classic;html=1;rounded=0;entryX=-0.027;entryY=0.192;entryDx=0;entryDy=0;entryPerimeter=0;strokeWidth=3;strokeColor=#FF9999;exitX=0;exitY=0;exitDx=45;exitDy=5;exitPerimeter=0;" edge="1" parent="1" source="v9XfCU0aPKug2swARkXn-3" target="v9XfCU0aPKug2swARkXn-8">
          <mxGeometry width="50" height="50" relative="1" as="geometry">
            <mxPoint x="390" y="640" as="sourcePoint" />
            <mxPoint x="440" y="590" as="targetPoint" />
          </mxGeometry>
        </mxCell>
        <mxCell id="v9XfCU0aPKug2swARkXn-16" value="Normal" style="text;html=1;align=center;verticalAlign=middle;whiteSpace=wrap;rounded=0;fontSize=15;fontStyle=1" vertex="1" parent="1">
          <mxGeometry x="420" y="520" width="60" height="30" as="geometry" />
        </mxCell>
      </root>
    </mxGraphModel>
  </diagram>
</mxfile>
